<svg width="64" height="64" viewBox="0 0 64 64" fill="none" xmlns="http://www.w3.org/2000/svg" stroke="#294065" stroke-width="2.5" stroke-linecap="round" stroke-linejoin="round">
  <circle cx="32" cy="10" r="3" />
  <line x1="32" y1="13" x2="32" y2="48" />
  <line x1="16" y1="18" x2="48" y2="18" />
  <circle cx="16" cy="18" r="1.5" />
  <circle cx="48" cy="18" r="1.5" />
  <line x1="16" y1="18" x2="8" y2="34" />
  <line x1="16" y1="18" x2="24" y2="34" />
  <path d="M8 34 a 8 8 0 0 0 16 0" />
  <line x1="48" y1="18" x2="40" y2="34" />
  <line x1="48" y1="18" x2="56" y2="34" />
  <path d="M40 34 a 8 8 0 0 0 16 0" />
  <line x1="26" y1="48" x2="38" y2="48" />
  <line x1="22" y1="52" x2="42" y2="52" />
  <polyline points="10,50 28,34 36,40 54,20" stroke="#d4af37" stroke-width="3" />
  <polyline points="46,20 54,20 54,28" stroke="#d4af37" stroke-width="3" />
</svg>
